<svg xmlns="http://www.w3.org/2000/svg" width="720" height="2160" viewBox="0 0 720 2160" fill="none">
<rect width="720" height="2160" fill="#fffcf8"/>
<rect x="26" y="26" width="668" height="2108" rx="18" fill="#fffdfb" stroke="#d8c6a7" stroke-width="4"/>
<rect x="58" y="58" width="604" height="2044" rx="12" fill="none" stroke="#efe4d2" stroke-width="2"/>
<text x="360" y="188" text-anchor="middle" fill="#7d6a55" font-size="68" font-family="Cormorant Garamond, serif" letter-spacing="10">AMELIA</text>
<text x="360" y="250" text-anchor="middle" fill="#8d7c67" font-size="62" font-style="italic" font-family="Cormorant Garamond, serif">and</text>
<text x="360" y="334" text-anchor="middle" fill="#7d6a55" font-size="68" font-family="Cormorant Garamond, serif" letter-spacing="10">DANIEL</text>
<text x="360" y="392" text-anchor="middle" fill="#ad9372" font-size="28" font-family="Manrope, Arial, sans-serif" letter-spacing="6">09 . 21 . 2026</text>
<rect x="78" y="460" width="564" height="396" rx="8" fill="none" stroke="#d9ccb9" stroke-width="4"/>
<rect x="78" y="904" width="564" height="396" rx="8" fill="none" stroke="#d9ccb9" stroke-width="4"/>
<rect x="78" y="1348" width="564" height="396" rx="8" fill="none" stroke="#d9ccb9" stroke-width="4"/>
<rect x="58" y="1812" width="604" height="248" rx="0" fill="#fffaf4"/>
<line x1="110" y1="1858" x2="610" y2="1858" stroke="#cbb48f" stroke-width="2"/>
<text x="120" y="1972" fill="#2b2622" font-size="176" font-family="Cormorant Garamond, serif">A</text>
<text x="250" y="1972" fill="#2b2622" font-size="176" font-family="Cormorant Garamond, serif" opacity="0.78">D</text>
<text x="122" y="2036" fill="#8d7c67" font-size="42" font-family="Cormorant Garamond, serif">Amelia</text>
<text x="122" y="2084" fill="#8d7c67" font-size="42" font-family="Cormorant Garamond, serif">and Daniel</text>
<text x="592" y="2078" text-anchor="end" fill="#ad9372" font-size="30" font-family="Manrope, Arial, sans-serif" letter-spacing="4">TIMELESS ROMANCE</text>
<rect x="0" y="0" width="720" height="2160" fill="url(#checker)" opacity="0.42"/>
<defs>
  <pattern id="checker" width="24" height="24" patternUnits="userSpaceOnUse">
    <rect width="24" height="24" fill="#ffffff"/>
    <rect width="12" height="12" fill="#efe6da"/>
    <rect x="12" y="12" width="12" height="12" fill="#efe6da"/>
  </pattern>
</defs>
</svg>
